# xmcd
# 
# Track frame offsets:
#     183
#     11055
#     20513
#     32233
#     44268
#     54770
#     65238
#     74360
#     85993
#     97395
#     107665
#     122595
#     134118
#     144635
#     156915
#     167958
#     179348
#     189388
#     203668
#     214960
# 
# Disc length: 3023
# 
# Revision: 1
# Processed by: cddbd v1.5.2PL0 Copyright (c) Steve Scherf et al.
# Submitted via: BonkEnc v1.0.6
# 
DISCID=320bcd14
DTITLE=Slim Whitman - The Collection CD 1
DYEAR=1989
DGENRE=Country
TTITLE0=Rose Marie
TTITLE1=My Blue Heaven
TTITLE2=Bouquet of Roses
TTITLE3=Lorena
TTITLE4=How could I Not Love You
TTITLE5=Take Me in Your Arms and Hold Me
TTITLE6=When My Dreamboat Comes Home
TTITLE7=I'd Trade all of My Tomorrows
TTITLE8=White Silver Sands
TTITLE9=Nobody's Darling' But Mine
TTITLE10=Indian Love Call
TTITLE11=I'm Walking  Behind You
TTITLE12=I'd Climb the Highest Mountain
TTITLE13=Tell Me
TTITLE14=Ride Away (With a Song in My Heart)
TTITLE15=Little Green Valley
TTITLE16=Born to Lose
TTITLE17=At Mail Call Today
TTITLE18=In the Valley of the Moon
TTITLE19=Blue Eyes Crying in the Rain
EXTD=YEAR: 1989
EXTT0=
EXTT1=
EXTT2=
EXTT3=
EXTT4=
EXTT5=
EXTT6=
EXTT7=
EXTT8=
EXTT9=
EXTT10=
EXTT11=
EXTT12=
EXTT13=
EXTT14=
EXTT15=
EXTT16=
EXTT17=
EXTT18=
EXTT19=
PLAYORDER=
